<svg xmlns="http://www.w3.org/2000/svg" width="512" height="512" viewBox="0 0 512 512">
  <defs>
    <linearGradient id="bg" x1="0%" y1="0%" x2="100%" y2="100%">
      <stop offset="0%" stop-color="#567a5d" />
      <stop offset="100%" stop-color="#3f5d45" />
    </linearGradient>
  </defs>
  <rect width="512" height="512" fill="url(#bg)" />
  <circle cx="256" cy="256" r="150" fill="#fffaf4" />
  <circle cx="256" cy="256" r="118" fill="#efe1cf" />
  <path d="M198 178c10 0 18 8 18 18v120c0 10-8 18-18 18s-18-8-18-18V196c0-10 8-18 18-18zm116 0c10 0 18 8 18 18v120c0 10-8 18-18 18s-18-8-18-18V196c0-10 8-18 18-18z" fill="#567a5d"/>
  <path d="M256 168c10 0 18 8 18 18v138c0 10-8 18-18 18s-18-8-18-18V186c0-10 8-18 18-18z" fill="#567a5d"/>
  <path d="M170 126c34 8 58 26 71 55 6 13 21 20 35 17 13-3 24-15 29-33 9-29 31-47 65-53 11-2 21 5 24 15 3 10-3 21-13 25-22 10-37 29-43 56-9 38-46 63-84 56-34-6-61-31-80-73-4-10 1-21 11-25 6-2 12-2 17 0z" fill="#dfead8"/>
</svg>
